<svg width="30" height="32" viewBox="0 0 30 32" fill="none" xmlns="http://www.w3.org/2000/svg">
<path d="M3.06048 4.18565V14.5373L9.31646 6.97609V0H0V0.045007V2.79044C0 4.08664 0.840131 4.26067 1.2602 4.18565H3.06048Z" fill="#FF9F05"/>
<path d="M3.10548 32L9.54149 31.6399C9.85654 24.2138 10.1716 22.9086 10.8467 20.8382C11.3868 19.182 12.2119 19.638 12.557 20.0731C13.061 20.5052 18.918 28.1444 21.7834 31.91L28.7595 31.8199C29.8397 31.7839 29.5696 31.1748 29.2996 30.8748L16.5626 15.0323L28.8495 0.405031V0.315016C28.5255 0.0629766 26.9442 0.0299715 26.1941 0.0449738H21.1083L3.10548 22.4135V32Z" fill="white"/>
</svg>
