<svg width="37" height="40" viewBox="0 0 37 40" fill="none" xmlns="http://www.w3.org/2000/svg">
<path d="M3.82562 5.2321V18.1717L11.6456 8.72016V0H0V0.0562591V3.48807C0 5.10833 1.05017 5.32586 1.57526 5.2321H3.82562Z" fill="#FF9F05"/>
<path d="M3.88135 40L11.9264 39.5499C12.3202 30.2672 12.714 28.6357 13.5579 26.0478C14.233 23.9774 15.2644 24.5475 15.6958 25.0914C16.3259 25.6314 23.6471 35.1805 27.2289 39.8875L35.949 39.775C37.2993 39.73 36.9617 38.9686 36.6242 38.5935L20.7028 18.7903L36.0616 0.506124V0.393604C35.6565 0.0785531 33.6799 0.0372964 32.7423 0.0560494H26.385L3.88135 28.0168V40Z" fill="white"/>
</svg>
