<svg width="34" height="32" viewBox="0 0 34 32" fill="none" xmlns="http://www.w3.org/2000/svg">
<path d="M31.6776 0.130765L0.885311 13.5542C0.86699 13.5621 0.849231 13.5716 0.832184 13.5826C0.582488 13.742 -1.16007 14.9427 1.29704 16.0192L1.32228 16.0297L8.65445 18.6982C8.71039 18.7187 8.76962 18.7251 8.82801 18.7171C8.8864 18.7091 8.94252 18.6868 8.99247 18.6518L27.1784 5.86955C27.223 5.8382 27.2727 5.8171 27.3246 5.80746C27.5776 5.76033 28.3061 5.67205 27.8452 6.33114C27.3239 7.07925 14.9022 19.6191 13.5235 21.0099C13.444 21.0903 13.3948 21.2019 13.3861 21.3218L12.7844 29.4015C12.7843 29.4838 12.8013 29.565 12.8339 29.6386C12.8665 29.7122 12.9139 29.7763 12.9723 29.8257C13.0552 29.8845 13.1527 29.9117 13.2504 29.9034C13.3481 29.895 13.4408 29.8515 13.5149 29.7793L17.8713 25.3931C17.9401 25.3238 18.0279 25.2832 18.1201 25.2779C18.2122 25.2726 18.3033 25.3029 18.378 25.3639L25.9784 31.5807L26.003 31.5994C26.187 31.7274 28.1739 33.0298 28.7477 30.1212L33.994 2.01826C34.0013 1.92923 34.0723 0.950698 33.4514 0.372405C32.7993 -0.232071 31.8762 0.0731597 31.7374 0.106077C31.7169 0.112497 31.6969 0.120753 31.6776 0.130765Z" fill="#009EEB"/>
</svg>
