<svg width="44" height="40" viewBox="0 0 44 40" fill="none" xmlns="http://www.w3.org/2000/svg">
<path d="M40.4622 0.163456L1.13082 16.9427C1.10742 16.9527 1.08473 16.9645 1.06296 16.9783C0.744018 17.1774 -1.48177 18.6784 1.65673 20.024L1.68896 20.0371L11.0544 23.3728C11.1259 23.3984 11.2015 23.4064 11.2761 23.3964C11.3507 23.3864 11.4224 23.3585 11.4862 23.3148L34.7153 7.33694C34.7723 7.29775 34.8357 7.27137 34.9019 7.25932C35.2251 7.20041 36.1556 7.09006 35.567 7.91392C34.9011 8.84906 19.0347 24.5239 17.2737 26.2624C17.1722 26.3629 17.1094 26.5024 17.0982 26.6523L16.3296 36.7519C16.3295 36.8547 16.3512 36.9562 16.3929 37.0482C16.4345 37.1403 16.4951 37.2203 16.5697 37.2821C16.6756 37.3556 16.8001 37.3897 16.9249 37.3792C17.0497 37.3688 17.1681 37.3144 17.2627 37.2241L22.8272 31.7414C22.9151 31.6548 23.0272 31.604 23.145 31.5973C23.2627 31.5907 23.3789 31.6286 23.4744 31.7049L33.1825 39.4759L33.2139 39.4993C33.4489 39.6592 35.9868 41.2873 36.7197 37.6515L43.4209 2.52282C43.4302 2.41154 43.5209 1.18837 42.7278 0.465507C41.8949 -0.290089 40.7158 0.0914496 40.5385 0.132596C40.5124 0.140621 40.4868 0.150941 40.4622 0.163456Z" fill="#009EEB"/>
</svg>
