<svg width="40" height="40" viewBox="0 0 40 40" fill="none" xmlns="http://www.w3.org/2000/svg">
<path fill-rule="evenodd" clip-rule="evenodd" d="M6.14021 0H33.7074C37.0984 0 39.8476 2.7596 39.8476 6.16369V33.8363C39.8476 37.2403 37.0984 40 33.7074 40H6.14021C2.74908 40 0 37.2403 0 33.8363V6.16369C0 2.7596 2.74908 0 6.14021 0Z" fill="#4C75A3"/>
<path fill-rule="evenodd" clip-rule="evenodd" d="M19.5892 28.0013H21.2192C21.2192 28.0013 21.7114 27.9468 21.9631 27.675C22.1944 27.4251 22.187 26.9563 22.187 26.9563C22.187 26.9563 22.1551 24.7608 23.1701 24.4375C24.171 24.1188 25.4559 26.5593 26.8178 27.4978C27.8477 28.2078 28.6303 28.0524 28.6303 28.0524L32.2722 28.0013C32.2722 28.0013 34.1772 27.8833 33.2738 26.3797C33.1999 26.2569 32.7476 25.2675 30.5659 23.2348C28.2822 21.1071 28.5883 21.4514 31.339 17.7711C33.0143 15.5298 33.6839 14.1616 33.4746 13.5756C33.2753 13.0173 32.043 13.1648 32.043 13.1648L27.9426 13.1902C27.9426 13.1902 27.6384 13.1487 27.4131 13.284C27.1928 13.4163 27.0513 13.7256 27.0513 13.7256C27.0513 13.7256 26.4021 15.4598 25.5369 16.935C23.711 20.0472 22.9808 20.2119 22.6823 20.0183C21.988 19.5679 22.1615 18.2091 22.1615 17.2435C22.1615 14.2273 22.6172 12.9697 21.274 12.6442C20.8283 12.5363 20.5 12.4648 19.3601 12.4532C17.8969 12.4382 16.6588 12.4577 15.9576 12.8025C15.4911 13.0318 15.1312 13.5427 15.3505 13.5721C15.6216 13.6084 16.2352 13.7384 16.5606 14.1828C16.9809 14.7568 16.9662 16.0454 16.9662 16.0454C16.9662 16.0454 17.2077 19.5959 16.4023 20.0369C15.8497 20.3393 15.0914 19.7218 13.4636 16.8982C12.6297 15.4519 11.9998 13.853 11.9998 13.853C11.9998 13.853 11.8785 13.5543 11.6619 13.3944C11.3992 13.2006 11.032 13.1392 11.032 13.1392L7.13542 13.1648C7.13542 13.1648 6.55061 13.1811 6.3357 13.4365C6.14451 13.6638 6.32044 14.1333 6.32044 14.1333C6.32044 14.1333 9.37086 21.2976 12.8252 24.908C15.9928 28.2186 19.5892 28.0013 19.5892 28.0013Z" fill="white"/>
</svg>
