<svg width="32" height="32" viewBox="0 0 32 32" fill="none" xmlns="http://www.w3.org/2000/svg">
<g clip-path="url(#clip0_1041_217)">
<path fill-rule="evenodd" clip-rule="evenodd" d="M11.0933 0H20.9067C29.8667 0 32 2.13333 32 11.0933V20.9067C32 29.8667 29.8667 32 20.9067 32H11.0933C2.13333 32 0 29.8667 0 20.9067V11.0933C0 2.13333 2.13333 0 11.0933 0Z" fill="#5181B8"/>
<path fill-rule="evenodd" clip-rule="evenodd" d="M26.2057 11.0243C26.354 10.53 26.2057 10.1667 25.5 10.1667H23.1667C22.5733 10.1667 22.3 10.4805 22.1517 10.8267C22.1517 10.8267 20.965 13.7188 19.284 15.5975C18.7402 16.1413 18.493 16.3143 18.1963 16.3143C18.048 16.3143 17.8333 16.1413 17.8333 15.647V11.0243C17.8333 10.431 17.6612 10.1667 17.1667 10.1667H13.5C13.1293 10.1667 12.9063 10.442 12.9063 10.703C12.9063 11.2655 13.7467 11.3952 13.8333 12.9772V16.4133C13.8333 17.1667 13.6973 17.3033 13.4007 17.3033C12.6097 17.3033 10.6857 14.398 9.54433 11.0738C9.32067 10.4277 9.09633 10.1667 8.5 10.1667H6.16667C5.5 10.1667 5.36667 10.4805 5.36667 10.8267C5.36667 11.4447 6.15783 14.51 9.05 18.564C10.9782 21.3325 13.6947 22.8333 16.1667 22.8333C17.65 22.8333 17.8333 22.5 17.8333 21.9258V19.8333C17.8333 19.1667 17.9738 19.0337 18.4435 19.0337C18.7897 19.0337 19.3828 19.2067 20.7673 20.5415C22.3493 22.1236 22.61 22.8333 23.5 22.8333H25.8333C26.5 22.8333 26.8333 22.5 26.641 21.8421C26.4307 21.1865 25.6753 20.2355 24.673 19.1078C24.1292 18.465 23.3133 17.7728 23.0663 17.4268C22.7202 16.9818 22.819 16.784 23.0663 16.3885C23.0663 16.3885 25.909 12.384 26.2057 11.0243Z" fill="white"/>
</g>
<defs>
<clipPath id="clip0_1041_217">
<rect width="32" height="32" fill="white"/>
</clipPath>
</defs>
</svg>
