<svg width="53" height="55" viewBox="0 0 53 55" fill="none" xmlns="http://www.w3.org/2000/svg">
<path d="M29.4267 3.6274C29.3999 3.7971 28.9466 4.51682 28.7233 4.85547L49.1762 24.1027L29.0806 47.0117L30.6212 48.0389C31.9274 48.5524 32.0279 49.2111 32.0056 50.1266C31.9833 51.042 30.7775 51.5668 30.7552 51.5668C27.4416 52.2456 23.651 50.5248 22.1699 49.5795C22.1587 49.5274 21.6295 49.1642 19.6021 48.1282C17.5747 47.0921 11.188 42.2781 8.24803 40.0006C4.22889 35.5907 2.20817 32.2414 1.16989 25.7327C0.131612 19.2239 3.77116 6.41847 14.3326 2.93522C24.894 -0.548036 27.4059 1.71831 27.8748 1.79646C28.2499 1.85898 28.4702 1.96392 28.5335 2.00858C28.727 2.11278 29.1252 2.377 29.1699 2.60029C29.2145 2.82357 29.3746 3.14734 29.449 3.28131C29.4527 3.32597 29.4534 3.4577 29.4267 3.6274Z" fill="#F0DCDB" stroke="black"/>
<path d="M13.6292 50.6848C9.86013 50.2382 6.86364 46.9336 5.83653 45.3371C5.16668 44.2095 7.5335 42.6688 8.66109 42.6577C9.56316 42.6488 10.8902 44.3807 11.441 45.2478C12.5306 46.5875 14.3139 47.8453 15.0694 48.3068L15.315 48.3403L16.1635 48.731C16.8155 48.9901 16.8966 49.3451 16.8557 49.4902C16.7701 49.6726 16.3711 50.1176 15.4601 50.4392C14.5491 50.7607 13.8599 50.7369 13.6292 50.6848Z" fill="#91003A"/>
<path d="M18.2624 51.5668C18.2445 49.5483 20.6813 49.2893 21.9019 49.4121C24.9297 51.3145 27.5473 51.7231 28.4777 51.6896H28.9577V51.8012C28.7903 51.9873 28.0289 52.4755 26.323 52.94C24.1906 53.5205 22.4155 53.5763 22.181 53.5428C21.9935 53.5161 21.9168 53.4052 21.9019 53.3531C21.6451 53.3196 20.8502 53.2213 19.7249 53.0963C18.5995 52.9712 18.281 52.0245 18.2624 51.5668Z" fill="#91003A"/>
<path d="M20.0263 19.7598C19.2709 19.9756 17.7019 19.8759 17.4697 17.7502C17.4585 17.1213 18.0346 15.102 20.4282 12.0564L20.4729 12.0006C20.4692 11.8778 20.4997 11.5808 20.6515 11.3754C20.8413 11.1186 25.2959 6.97668 26.0885 6.46312C26.8812 5.94956 29.7839 3.91767 34.5622 2.39933C35.4256 2.17232 37.2573 2.06663 37.677 3.45993C41.2831 4.39401 48.973 8.10427 50.8844 15.4727C53.2735 24.6832 53.7201 35.5014 40.6579 43.2606C39.2512 44.924 35.5514 48.6216 32.0056 50.1043C32.0056 49.6614 31.8984 48.711 31.4697 48.4519C31.041 48.1929 30.7775 48.091 30.6994 48.0724C30.6696 48.0835 30.3019 47.887 29.0694 47.0117C29.0645 47.0083 29.0597 47.0049 29.0549 47.0014C27.7474 47.3367 25.0679 48.0435 24.7823 48.1952C24.425 48.385 23.0183 47.7374 22.7504 47.4025C22.4948 47.083 22.9097 47.048 23.0163 47.152C22.9355 47.0436 22.8325 46.7192 22.9849 46.1521C23.1858 45.4041 23.6659 44.7789 24.4139 44.2653L24.6707 44.0867C23.8631 43.7071 22.1676 42.814 21.8461 42.2781C23.0518 42.319 26.7427 41.9655 31.8604 40.2239C32.8243 39.6024 34.7944 37.9799 34.9641 36.4615C34.9753 36.2494 34.7542 35.8073 33.7807 35.7358C33.3639 35.7433 32.1797 35.8787 30.7775 36.361C29.0247 36.9639 17.7488 38.3483 14.634 29.9862C14.5595 29.469 14.7255 28.4456 15.9849 28.4902C16.1784 28.4679 16.7507 28.6421 17.492 29.5173C17.8084 30.0681 18.5482 31.2478 18.9769 31.5604C19.5128 31.9511 19.5463 32.8666 22.2927 32.8443C22.4341 33.0639 22.804 33.5186 23.1523 33.5811C23.5877 33.6593 24.3357 33.5476 24.425 33.4918C24.5144 33.436 24.7935 33.3244 25.2177 32.7996H25.2512C25.3926 33.142 25.8764 33.8714 26.6802 34.05C26.8068 34.0612 27.1737 34.0009 27.6292 33.6704C28.0847 33.34 29.449 33.1308 30.0742 33.0676C31.5069 32.8592 34.6895 31.5917 35.9577 28.1888C37.226 24.7859 35.4591 21.3674 34.4171 20.0835L33.7584 19.2909C33.5872 19.4397 33.2113 19.9295 33.0774 20.6976C32.9211 21.8214 31.7801 24.5381 28.4665 26.4137C28.18 26.5811 27.3903 26.8736 26.5239 26.7039C25.441 26.4918 25.4856 25.5094 25.5303 24.9065C25.575 24.3036 26.3788 21.8586 28.2097 19.6035C28.3325 19.1643 28.3348 18.2191 27.3612 17.9512C26.1443 17.6162 25.3628 17.6832 23.4761 18.4089C21.5893 19.1346 21.9689 19.1122 20.0263 19.7598Z" fill="#91003A"/>
<path d="M37.677 3.45993C37.2573 2.06663 35.4256 2.17232 34.5622 2.39933C29.7839 3.91767 26.8812 5.94956 26.0885 6.46312C25.2959 6.97668 20.8413 11.1186 20.6515 11.3754C20.4997 11.5808 20.4692 11.8778 20.4729 12.0006L20.4282 12.0564C18.0346 15.102 17.4585 17.1213 17.4697 17.7502C17.7019 19.8759 19.2709 19.9756 20.0263 19.7598C21.9689 19.1122 21.5893 19.1346 23.4761 18.4089C25.3628 17.6832 26.1443 17.6162 27.3612 17.9512C28.3348 18.2191 28.3325 19.1643 28.2097 19.6035C26.3788 21.8586 25.575 24.3036 25.5303 24.9065C25.4856 25.5094 25.441 26.4918 26.5239 26.7039C27.3903 26.8736 28.18 26.5811 28.4665 26.4137C31.7801 24.5381 32.9211 21.8214 33.0774 20.6976C33.2113 19.9295 33.5872 19.4397 33.7584 19.2909L34.4171 20.0835C35.4591 21.3674 37.226 24.7859 35.9577 28.1888C34.6895 31.5917 31.5069 32.8592 30.0742 33.0676C29.449 33.1308 28.0847 33.34 27.6292 33.6704C27.1737 34.0009 26.8068 34.0612 26.6802 34.05C25.8764 33.8714 25.3926 33.142 25.2512 32.7996H25.2177C24.7935 33.3244 24.5144 33.436 24.425 33.4918C24.3357 33.5476 23.5877 33.6593 23.1523 33.5811C22.804 33.5186 22.4341 33.0639 22.2927 32.8443C19.5463 32.8666 19.5128 31.9511 18.9769 31.5604C18.5482 31.2478 17.8084 30.0681 17.492 29.5173C16.7507 28.6421 16.1784 28.4679 15.9849 28.4902C14.7255 28.4456 14.5595 29.469 14.634 29.9862C17.7488 38.3483 29.0247 36.9639 30.7775 36.361C32.1797 35.8787 33.3639 35.7433 33.7807 35.7358C34.7542 35.8073 34.9753 36.2494 34.9641 36.4615C34.7944 37.9799 32.8243 39.6024 31.8604 40.2239C26.7427 41.9655 23.0518 42.319 21.8461 42.2781C22.1676 42.814 23.8631 43.7071 24.6707 44.0867L24.4139 44.2653C23.6659 44.7789 23.1858 45.4041 22.9849 46.1521C22.8241 46.7505 22.9476 47.0787 23.0295 47.168C22.9514 47.0452 22.4825 47.0676 22.7504 47.4025C23.0183 47.7374 24.425 48.385 24.7823 48.1952C25.0681 48.0433 27.752 47.3355 29.0582 47.0006M37.677 3.45993C38.2018 5.20156 38.425 7.19996 36.2927 9.52213C37.197 8.75552 38.7399 6.46982 37.677 3.45993ZM37.677 3.45993C41.2831 4.39401 48.973 8.10427 50.8844 15.4727C53.2735 24.6832 53.7201 35.5014 40.6579 43.2606C39.2512 44.924 35.5514 48.6216 32.0056 50.1043C32.0056 49.6614 31.8984 48.711 31.4697 48.4519C31.041 48.1929 30.7775 48.091 30.6994 48.0724C30.6696 48.0835 30.3019 47.887 29.0694 47.0117C27.8368 46.1365 28.5484 46.6396 29.0582 47.0006M29.0582 47.0006C30.5766 46.688 34.9061 45.5157 40.0774 43.3275C37.9338 44.2281 32.729 46.2235 29.0582 47.0006ZM5.83653 45.3371C6.86364 46.9336 9.86013 50.2382 13.6292 50.6848C13.8599 50.7369 14.5491 50.7607 15.4601 50.4392C16.3711 50.1176 16.7701 49.6726 16.8557 49.4902C16.8966 49.3451 16.8155 48.9901 16.1635 48.731L15.315 48.3403L15.0694 48.3068C14.3139 47.8453 12.5306 46.5875 11.441 45.2478C10.8902 44.3807 9.56317 42.6488 8.66109 42.6577C7.5335 42.6688 5.16668 44.2095 5.83653 45.3371ZM21.9019 49.4121C20.6813 49.2893 18.2445 49.5483 18.2624 51.5668C18.281 52.0245 18.5995 52.9712 19.7249 53.0963C20.8502 53.2213 21.6451 53.3196 21.9019 53.3531C21.9168 53.4052 21.9935 53.5161 22.181 53.5428C22.4155 53.5763 24.1906 53.5205 26.323 52.94C28.0289 52.4755 28.7903 51.9873 28.9577 51.8012V51.6896H28.4777C27.5473 51.7231 24.9297 51.3145 21.9019 49.4121Z" stroke="black"/>
<path d="M25.3294 33.3578L25.0503 33.3355L25.2512 33.1457L25.3294 33.3578Z" fill="#FECD09"/>
<path d="M31.8716 40.2239C30.6838 40.9652 26.5463 43.0856 24.626 44.0532C22.7951 43.2047 22.0024 42.5088 21.835 42.2669C25.0391 42.1553 25.3517 41.932 27.0152 41.5859C28.346 41.309 30.8073 40.5625 31.8716 40.2239Z" fill="#FECD09"/>
<path d="M25.3294 33.3578L25.0503 33.3355L25.2512 33.1457L25.3294 33.3578Z" stroke="black"/>
<path d="M31.8716 40.2239C30.6838 40.9652 26.5463 43.0856 24.626 44.0532C22.7951 43.2047 22.0024 42.5088 21.835 42.2669C25.0391 42.1553 25.3517 41.932 27.0152 41.5859C28.346 41.309 30.8073 40.5625 31.8716 40.2239Z" stroke="black"/>
<path d="M8.38202 15.9639C7.89972 15.2941 7.74193 14.2707 7.72333 13.8427C7.75682 13.5413 8.24805 13.3626 8.47133 13.4966C8.64996 13.6038 8.97745 14.2037 9.11886 14.4902C9.26028 14.7991 9.64358 15.5106 10.0455 15.8858C10.4474 16.2609 10.533 16.5259 10.5256 16.6114C10.5107 16.6673 10.4496 16.799 10.3246 16.8794C10.1996 16.9598 9.97479 16.9352 9.87803 16.9129C9.58032 16.8757 8.86432 16.6338 8.38202 15.9639Z" fill="black"/>
<path d="M11.0391 26.6928C10.5658 26.3713 10.2911 25.9708 10.213 25.8108C10.1772 25.4803 10.399 25.5094 10.5144 25.5652C10.5739 25.621 10.7399 25.7907 10.9275 26.0229C11.1619 26.3132 11.4857 26.3802 11.5973 26.302C11.6866 26.2395 11.7834 26.2388 11.8206 26.2462C11.9367 26.2998 11.9806 26.3802 11.9881 26.4137C11.9918 26.436 11.997 26.4985 11.9881 26.57C11.9791 26.6414 11.7983 26.7114 11.709 26.7374C11.6271 26.7449 11.4299 26.7575 11.2959 26.7486C11.1619 26.7397 11.0689 26.7077 11.0391 26.6928Z" fill="black"/>
<path d="M22.5495 28.9145C22.2101 30.3524 21.8498 30.8533 21.7122 30.924C21.6117 30.991 20.819 30.9799 20.7297 29.7183C20.6582 28.709 20.6776 28.3972 20.6962 28.3674C20.9642 27.6976 21.2209 27.3515 21.6005 26.8268C21.9042 26.407 22.2629 26.5104 22.4043 26.6146C22.5941 26.7821 22.8889 27.4765 22.5495 28.9145Z" fill="black"/>
<path d="M29.8063 27.9097C29.9492 27.481 30.2603 27.478 30.398 27.5301C30.6302 27.6016 30.7552 27.9171 30.7887 28.066C30.8244 28.7448 30.3868 30.5445 30.1635 31.3594C30.0779 31.6274 29.8464 32.1521 29.6053 32.1075C29.3641 32.0628 29.2666 31.7986 29.248 31.672C29.2592 29.6625 29.6276 28.4456 29.8063 27.9097Z" fill="black"/>
<path d="M19.5909 17.7837C19.6088 17.9534 19.457 17.9958 19.3788 17.9958C18.9948 17.9601 18.9509 17.6088 18.9769 17.4376C18.9992 17.3632 19.0707 17.2232 19.1779 17.259C19.285 17.2947 19.4012 17.4897 19.4458 17.5827C19.5262 17.6274 19.5761 17.7353 19.5909 17.7837Z" fill="black"/>
<path d="M28.1651 10.5827C25.5929 10.4934 25.188 12.704 25.3071 13.8204C25.3368 13.9506 25.4567 14.191 25.6978 14.1107C25.9389 14.0303 25.9992 13.8836 25.9992 13.8204C25.8117 11.7304 27.3278 11.3196 28.1093 11.3754C28.1539 11.4126 28.2745 11.4915 28.3996 11.5094C28.5246 11.5272 28.608 11.4275 28.634 11.3754C29.0002 11.5272 29.0769 11.3121 29.0694 11.1856C28.9801 10.7658 28.4293 10.6088 28.1651 10.5827Z" fill="black"/>
<path d="M8.38202 15.9639C7.89972 15.2941 7.74193 14.2707 7.72333 13.8427C7.75682 13.5413 8.24805 13.3626 8.47133 13.4966C8.64996 13.6038 8.97745 14.2037 9.11886 14.4902C9.26028 14.7991 9.64358 15.5106 10.0455 15.8858C10.4474 16.2609 10.533 16.5259 10.5256 16.6114C10.5107 16.6673 10.4496 16.799 10.3246 16.8794C10.1996 16.9598 9.97479 16.9352 9.87803 16.9129C9.58032 16.8757 8.86432 16.6338 8.38202 15.9639Z" stroke="black"/>
<path d="M11.0391 26.6928C10.5658 26.3713 10.2911 25.9708 10.213 25.8108C10.1772 25.4803 10.399 25.5094 10.5144 25.5652C10.5739 25.621 10.7399 25.7907 10.9275 26.0229C11.1619 26.3132 11.4857 26.3802 11.5973 26.302C11.6866 26.2395 11.7834 26.2388 11.8206 26.2462C11.9367 26.2998 11.9806 26.3802 11.9881 26.4137C11.9918 26.436 11.997 26.4985 11.9881 26.57C11.9791 26.6414 11.7983 26.7114 11.709 26.7374C11.6271 26.7449 11.4299 26.7575 11.2959 26.7486C11.1619 26.7397 11.0689 26.7077 11.0391 26.6928Z" stroke="black"/>
<path d="M22.5495 28.9145C22.2101 30.3524 21.8498 30.8533 21.7122 30.924C21.6117 30.991 20.819 30.9799 20.7297 29.7183C20.6582 28.709 20.6776 28.3972 20.6962 28.3674C20.9642 27.6976 21.2209 27.3515 21.6005 26.8268C21.9042 26.407 22.2629 26.5104 22.4043 26.6146C22.5941 26.7821 22.8889 27.4765 22.5495 28.9145Z" stroke="black"/>
<path d="M29.8063 27.9097C29.9492 27.481 30.2603 27.478 30.398 27.5301C30.6302 27.6016 30.7552 27.9171 30.7887 28.066C30.8244 28.7448 30.3868 30.5445 30.1635 31.3594C30.0779 31.6274 29.8464 32.1521 29.6053 32.1075C29.3641 32.0628 29.2666 31.7986 29.248 31.672C29.2592 29.6625 29.6276 28.4456 29.8063 27.9097Z" stroke="black"/>
<path d="M19.5909 17.7837C19.6088 17.9534 19.457 17.9958 19.3788 17.9958C18.9948 17.9601 18.9509 17.6088 18.9769 17.4376C18.9992 17.3632 19.0707 17.2232 19.1779 17.259C19.285 17.2947 19.4012 17.4897 19.4458 17.5827C19.5262 17.6274 19.5761 17.7353 19.5909 17.7837Z" stroke="black"/>
<path d="M28.1651 10.5827C25.5929 10.4934 25.188 12.704 25.3071 13.8204C25.3368 13.9506 25.4567 14.191 25.6978 14.1107C25.9389 14.0303 25.9992 13.8836 25.9992 13.8204C25.8117 11.7304 27.3278 11.3196 28.1093 11.3754C28.1539 11.4126 28.2745 11.4915 28.3996 11.5094C28.5246 11.5272 28.608 11.4275 28.634 11.3754C29.0002 11.5272 29.0769 11.3121 29.0694 11.1856C28.9801 10.7658 28.4293 10.6088 28.1651 10.5827Z" stroke="black"/>
</svg>
